<mxfile host="app.diagrams.net" modified="2023-10-30T18:48:33.174Z" agent="Mozilla/5.0 (Macintosh; Intel Mac OS X 10_15_7) AppleWebKit/605.1.15 (KHTML, like Gecko) Version/16.2 Safari/605.1.15" etag="_oJMOVFMwsNotp77DX08" version="22.0.8" type="device">
  <diagram name="Seite-1" id="Uau8SP8XkSTy1ruv9QPG">
    <mxGraphModel dx="1881" dy="1073" grid="1" gridSize="10" guides="1" tooltips="1" connect="1" arrows="1" fold="1" page="1" pageScale="1" pageWidth="827" pageHeight="1169" math="0" shadow="0">
      <root>
        <mxCell id="0" />
        <mxCell id="1" parent="0" />
        <mxCell id="j2RG5ooTwu8e3MT2P7SM-10" value="" style="group" vertex="1" connectable="0" parent="1">
          <mxGeometry x="150" y="360" width="550" height="410" as="geometry" />
        </mxCell>
        <mxCell id="j2RG5ooTwu8e3MT2P7SM-4" value="" style="rounded=0;whiteSpace=wrap;html=1;fillColor=none;dashed=1;" vertex="1" parent="j2RG5ooTwu8e3MT2P7SM-10">
          <mxGeometry x="10" width="540" height="370" as="geometry" />
        </mxCell>
        <mxCell id="j2RG5ooTwu8e3MT2P7SM-5" value="Azure Kubernetes" style="text;html=1;strokeColor=none;fillColor=none;align=center;verticalAlign=middle;whiteSpace=wrap;rounded=0;" vertex="1" parent="j2RG5ooTwu8e3MT2P7SM-10">
          <mxGeometry y="380" width="60" height="30" as="geometry" />
        </mxCell>
        <mxCell id="j2RG5ooTwu8e3MT2P7SM-18" style="edgeStyle=orthogonalEdgeStyle;rounded=0;orthogonalLoop=1;jettySize=auto;html=1;endArrow=none;endFill=0;" edge="1" parent="1" source="j2RG5ooTwu8e3MT2P7SM-1" target="j2RG5ooTwu8e3MT2P7SM-3">
          <mxGeometry relative="1" as="geometry" />
        </mxCell>
        <mxCell id="j2RG5ooTwu8e3MT2P7SM-1" value="Appointment Service" style="rounded=0;whiteSpace=wrap;html=1;" vertex="1" parent="1">
          <mxGeometry x="370" y="450" width="120" height="60" as="geometry" />
        </mxCell>
        <mxCell id="j2RG5ooTwu8e3MT2P7SM-3" value="Postgres" style="shape=datastore;whiteSpace=wrap;html=1;" vertex="1" parent="1">
          <mxGeometry x="400" y="600" width="60" height="60" as="geometry" />
        </mxCell>
        <mxCell id="j2RG5ooTwu8e3MT2P7SM-8" value="Dummy Frontend" style="rounded=0;whiteSpace=wrap;html=1;" vertex="1" parent="1">
          <mxGeometry x="540" y="128.78" width="120" height="60" as="geometry" />
        </mxCell>
        <mxCell id="j2RG5ooTwu8e3MT2P7SM-15" value="Github Actions" style="text;html=1;strokeColor=none;fillColor=none;align=center;verticalAlign=middle;whiteSpace=wrap;rounded=0;" vertex="1" parent="1">
          <mxGeometry x="310" y="90" width="60" height="30" as="geometry" />
        </mxCell>
        <mxCell id="j2RG5ooTwu8e3MT2P7SM-21" value="" style="group" vertex="1" connectable="0" parent="1">
          <mxGeometry x="133" y="120" width="77" height="108" as="geometry" />
        </mxCell>
        <mxCell id="j2RG5ooTwu8e3MT2P7SM-20" value="" style="sketch=0;outlineConnect=0;fontColor=#232F3E;gradientColor=none;fillColor=#232F3D;strokeColor=none;dashed=0;verticalLabelPosition=bottom;verticalAlign=top;align=center;html=1;fontSize=12;fontStyle=0;aspect=fixed;pointerEvents=1;shape=mxgraph.aws4.source_code;" vertex="1" parent="j2RG5ooTwu8e3MT2P7SM-21">
          <mxGeometry x="20" width="57" height="78" as="geometry" />
        </mxCell>
        <mxCell id="j2RG5ooTwu8e3MT2P7SM-7" value="" style="shape=image;html=1;verticalAlign=top;verticalLabelPosition=bottom;labelBackgroundColor=#ffffff;imageAspect=0;aspect=fixed;image=https://cdn1.iconfinder.com/data/icons/picons-social/57/github_rounded-128.png" vertex="1" parent="j2RG5ooTwu8e3MT2P7SM-21">
          <mxGeometry y="68" width="40" height="40" as="geometry" />
        </mxCell>
        <mxCell id="j2RG5ooTwu8e3MT2P7SM-25" value="" style="group" vertex="1" connectable="0" parent="1">
          <mxGeometry x="305" y="130" width="95" height="91" as="geometry" />
        </mxCell>
        <mxCell id="j2RG5ooTwu8e3MT2P7SM-19" value="" style="shape=image;html=1;verticalAlign=top;verticalLabelPosition=bottom;labelBackgroundColor=#ffffff;imageAspect=0;aspect=fixed;image=https://cdn1.iconfinder.com/data/icons/picons-social/57/github_rounded-128.png" vertex="1" parent="j2RG5ooTwu8e3MT2P7SM-25">
          <mxGeometry y="54.05940594059406" width="35.73394495412844" height="35.73394495412844" as="geometry" />
        </mxCell>
        <mxCell id="j2RG5ooTwu8e3MT2P7SM-23" value="" style="shape=image;html=1;verticalAlign=top;verticalLabelPosition=bottom;labelBackgroundColor=#ffffff;imageAspect=0;aspect=fixed;image=https://cdn0.iconfinder.com/data/icons/phosphor-fill-vol-3/256/lightning-fill-128.png" vertex="1" parent="j2RG5ooTwu8e3MT2P7SM-25">
          <mxGeometry x="17.431192660550458" y="-10" width="77.56880733944953" height="77.56880733944953" as="geometry" />
        </mxCell>
        <mxCell id="j2RG5ooTwu8e3MT2P7SM-26" style="edgeStyle=orthogonalEdgeStyle;rounded=0;orthogonalLoop=1;jettySize=auto;html=1;" edge="1" parent="1" source="j2RG5ooTwu8e3MT2P7SM-20" target="j2RG5ooTwu8e3MT2P7SM-23">
          <mxGeometry relative="1" as="geometry" />
        </mxCell>
        <mxCell id="j2RG5ooTwu8e3MT2P7SM-27" style="edgeStyle=orthogonalEdgeStyle;rounded=0;orthogonalLoop=1;jettySize=auto;html=1;" edge="1" parent="1" source="j2RG5ooTwu8e3MT2P7SM-23" target="j2RG5ooTwu8e3MT2P7SM-8">
          <mxGeometry relative="1" as="geometry" />
        </mxCell>
        <mxCell id="j2RG5ooTwu8e3MT2P7SM-28" style="rounded=0;orthogonalLoop=1;jettySize=auto;html=1;" edge="1" parent="1" source="j2RG5ooTwu8e3MT2P7SM-23" target="j2RG5ooTwu8e3MT2P7SM-1">
          <mxGeometry relative="1" as="geometry" />
        </mxCell>
      </root>
    </mxGraphModel>
  </diagram>
</mxfile>
